<svg xmlns="http://www.w3.org/2000/svg" viewBox="0 0 1200 630"><defs><linearGradient id="g" x1="0" y1="0" x2="1" y2="1"><stop stop-color="#0b1533"/><stop offset="1" stop-color="#153668"/></linearGradient></defs><rect width="1200" height="630" fill="url(#g)"/><g opacity=".45" fill="none" stroke="#22d3ee"><circle cx="935" cy="410" r="275"/><circle cx="935" cy="410" r="205"/><path d="M660 410h550M935 130v550M734 222l402 376M1136 222 734 598"/></g><path fill="#22d3ee" d="M90 86h128c70 0 113 37 113 90 0 39-24 69-64 84l75 112h-92l-66-97h-42l71-55h15c20 0 34-11 34-28 0-18-14-28-37-28H90z"/><path fill="#098de0" d="m95 255 98 117h-65L54 295z"/><text x="90" y="455" fill="white" font-family="Arial, sans-serif" font-size="72" font-weight="700">RAYNEXIS</text><text x="90" y="520" fill="#22d3ee" font-family="Arial, sans-serif" font-size="30" letter-spacing="7">TECHNOLOGY. SOLUTIONS. FUTURE.</text></svg>
